<svg xmlns="http://www.w3.org/2000/svg" id="Calque_1" data-name="Calque 1" viewBox="0 0 160.02 62.72"><defs><clipPath id="clippath"><path d="M0 0h160.02v62.72H0z" class="cls-1"/></clipPath><clipPath id="clippath-1"><path d="M0 0h160.02v62.72H0z" class="cls-1"/></clipPath><clipPath id="clippath-2"><path d="M0 0h160.02v62.72H0z" class="cls-1"/></clipPath><clipPath id="clippath-3"><path d="M0 0h160.02v62.72H0z" class="cls-1"/></clipPath><clipPath id="clippath-4"><path d="M0 0h160.02v62.72H0z" class="cls-1"/></clipPath><style>.cls-1{fill:none}.cls-4{fill:#b84e39}</style></defs><g style="clip-path:url(#clippath)"><path d="M.74 2.24.5 60.25M159.52 2.24l-.24 58.01M156.99.74 3.3.5m153.69 61.73L3.3 61.99" style="fill:none;stroke:#b84e39"/></g><path d="M1.85 1.63h156.32v59.52H1.85z" style="fill:#fff"/><g style="clip-path:url(#clippath-1)"><path d="M1.85 1.63h156.32v59.52H1.85z" style="fill:none;stroke:#fff"/><path d="M147.18 36.67c0 1.39-1.13 2.52-2.52 2.52s-2.52-1.13-2.52-2.52 1.13-2.52 2.52-2.52 2.52 1.13 2.52 2.52" class="cls-4"/></g><path d="M15.56 16.44h2.83v19.4h-2.83zm1.42 19.4h14.04v2.85H16.98zm69.26-13.58h2.83v16.4h-2.83z" class="cls-4"/><g style="clip-path:url(#clippath-2)"><path d="M100.08 38.67h-2.83v-9.68c0-2.15-1.74-3.89-3.87-3.89-1.01 0-2.01.42-2.73 1.14l-.43.43-1.97-2.03.42-.42a6.7 6.7 0 0 1 4.72-1.97c3.7 0 6.7 3.02 6.7 6.73v9.68Zm11.21.53c-2.25 0-4.36-.88-5.96-2.49-1.6-1.6-2.48-3.73-2.48-5.99s.88-4.38 2.48-5.99c1.6-1.6 3.72-2.49 5.96-2.49s4.36.88 5.96 2.49l.41.41-1.96 1.97-.41-.41c-2.22-2.2-5.81-2.2-8.01 0-1.06 1.07-1.65 2.5-1.65 4.02s.59 2.95 1.65 4.02c2.19 2.2 5.78 2.2 8.01 0l.41-.41 1.96 1.97-.41.41a8.34 8.34 0 0 1-5.96 2.49" class="cls-4"/><path d="M111.29 46.53c-2.25 0-4.36-.88-5.96-2.49a8.42 8.42 0 0 1-2.48-5.99v-.58h2.8v.58c0 3.12 2.53 5.67 5.64 5.67s5.64-2.54 5.64-5.67v-15.8h2.8v15.8c0 2.25-.88 4.38-2.48 5.99a8.34 8.34 0 0 1-5.96 2.49" class="cls-4"/></g><path d="M46.33 23.2h2.74v15.46h-2.74z" class="cls-4"/><path d="M40.6 39.19c-2.25 0-4.38-.88-5.98-2.49-1.6-1.6-2.49-3.73-2.49-5.98s.88-4.38 2.49-5.98c1.6-1.6 3.73-2.49 5.98-2.49s4.38.88 5.98 2.49l.38.38-1.91 1.96-.39-.39a5.7 5.7 0 0 0-4.07-1.7h-.02c-1.52 0-2.96.61-4.03 1.69-1.08 1.08-1.67 2.51-1.67 4.03s.59 2.99 1.66 4.06c1.08 1.08 2.52 1.67 4.06 1.67s2.96-.59 4.07-1.67l.39-.38 1.92 1.92-.39.39a8.42 8.42 0 0 1-5.98 2.49" class="cls-4" style="clip-path:url(#clippath-3)"/><path d="M79.35 22.26h2.79v16.4h-2.79zm0-5.8h2.79v2.88h-2.79zm-26.19-.02h2.8v22.28h-2.8z" class="cls-4"/><path d="m54.56 17.4 2.63-.96 7.86 21.27-2.63.96zm17.9-.96h2.8v22.28h-2.8z" class="cls-4"/><path d="m66 38.67-2.63-.96 7.86-21.27 2.63.96zm70.69-15.46h2.74v15.5h-2.74z" class="cls-4"/><path d="M130.96 39.19c-2.25 0-4.38-.88-5.98-2.49-1.6-1.6-2.49-3.73-2.49-5.98s.88-4.38 2.49-5.98c1.6-1.6 3.73-2.49 5.98-2.49s4.38.88 5.98 2.49l.38.38-1.91 1.96-.39-.39a5.7 5.7 0 0 0-4.07-1.7h-.02c-1.52 0-2.95.61-4.03 1.69s-1.67 2.51-1.67 4.03.59 2.99 1.66 4.06c1.08 1.08 2.52 1.67 4.06 1.67s2.96-.59 4.07-1.67l.39-.38 1.91 1.92-.39.39a8.42 8.42 0 0 1-5.98 2.49" class="cls-4" style="clip-path:url(#clippath-4)"/></svg>